<svg width="18" height="18" viewBox="0 0 18 18" fill="none" xmlns="http://www.w3.org/2000/svg">
<path d="M10.4099 8.99994L16.7099 2.70994C16.8982 2.52164 17.004 2.26624 17.004 1.99994C17.004 1.73364 16.8982 1.47825 16.7099 1.28994C16.5216 1.10164 16.2662 0.99585 15.9999 0.99585C15.7336 0.99585 15.4782 1.10164 15.2899 1.28994L8.99994 7.58994L2.70994 1.28994C2.52164 1.10164 2.26624 0.99585 1.99994 0.99585C1.73364 0.99585 1.47824 1.10164 1.28994 1.28994C1.10164 1.47825 0.995847 1.73364 0.995847 1.99994C0.995847 2.26624 1.10164 2.52164 1.28994 2.70994L7.58994 8.99994L1.28994 15.2899C1.19621 15.3829 1.12182 15.4935 1.07105 15.6154C1.02028 15.7372 0.994141 15.8679 0.994141 15.9999C0.994141 16.132 1.02028 16.2627 1.07105 16.3845C1.12182 16.5064 1.19621 16.617 1.28994 16.7099C1.3829 16.8037 1.4935 16.8781 1.61536 16.9288C1.73722 16.9796 1.86793 17.0057 1.99994 17.0057C2.13195 17.0057 2.26266 16.9796 2.38452 16.9288C2.50638 16.8781 2.61698 16.8037 2.70994 16.7099L8.99994 10.4099L15.2899 16.7099C15.3829 16.8037 15.4935 16.8781 15.6154 16.9288C15.7372 16.9796 15.8679 17.0057 15.9999 17.0057C16.132 17.0057 16.2627 16.9796 16.3845 16.9288C16.5064 16.8781 16.617 16.8037 16.7099 16.7099C16.8037 16.617 16.8781 16.5064 16.9288 16.3845C16.9796 16.2627 17.0057 16.132 17.0057 15.9999C17.0057 15.8679 16.9796 15.7372 16.9288 15.6154C16.8781 15.4935 16.8037 15.3829 16.7099 15.2899L10.4099 8.99994Z" fill="black"/>
</svg>
