<svg width="21" height="19" viewBox="0 0 21 19" fill="none" xmlns="http://www.w3.org/2000/svg">
<path d="M14.6235 6.71C14.7165 6.80373 14.8271 6.87812 14.9489 6.92889C15.0708 6.97966 15.2015 7.0058 15.3335 7.0058C15.4655 7.0058 15.5962 6.97966 15.7181 6.92889C15.8399 6.87812 15.9505 6.80373 16.0435 6.71L20.0435 2.71C20.2318 2.5217 20.3376 2.2663 20.3376 2C20.3376 1.7337 20.2318 1.47831 20.0435 1.29C19.8552 1.1017 19.5998 0.995911 19.3335 0.995911C19.0672 0.995911 18.8118 1.1017 18.6235 1.29L15.3335 4.59L14.0435 3.29C13.9503 3.19676 13.8396 3.1228 13.7177 3.07234C13.5959 3.02188 13.4654 2.99591 13.3335 2.99591C13.0672 2.99591 12.8118 3.1017 12.6235 3.29C12.5303 3.38324 12.4563 3.49393 12.4058 3.61575C12.3554 3.73758 12.3294 3.86814 12.3294 4C12.3294 4.2663 12.4352 4.5217 12.6235 4.71L14.6235 6.71ZM19.3335 6C19.0683 6 18.8139 6.10536 18.6264 6.2929C18.4389 6.48043 18.3335 6.73479 18.3335 7V16C18.3335 16.2652 18.2281 16.5196 18.0406 16.7071C17.8531 16.8946 17.5987 17 17.3335 17H3.3335C3.06828 17 2.81393 16.8946 2.62639 16.7071C2.43885 16.5196 2.3335 16.2652 2.3335 16V6.41L8.2135 12.3C8.77474 12.8567 9.53301 13.1693 10.3235 13.17C11.1339 13.1658 11.9099 12.8425 12.4835 12.27L14.2035 10.55C14.3918 10.3617 14.4976 10.1063 14.4976 9.84C14.4976 9.5737 14.3918 9.31831 14.2035 9.13C14.0152 8.9417 13.7598 8.83591 13.4935 8.83591C13.2272 8.83591 12.9718 8.9417 12.7835 9.13L11.0335 10.88C10.8466 11.0632 10.5952 11.1659 10.3335 11.1659C10.0717 11.1659 9.82043 11.0632 9.6335 10.88L3.7435 5H9.3335C9.59871 5 9.85307 4.89465 10.0406 4.70711C10.2281 4.51957 10.3335 4.26522 10.3335 4C10.3335 3.73479 10.2281 3.48043 10.0406 3.2929C9.85307 3.10536 9.59871 3 9.3335 3H3.3335C2.53785 3 1.77478 3.31607 1.21218 3.87868C0.649567 4.44129 0.333496 5.20435 0.333496 6V16C0.333496 16.7957 0.649567 17.5587 1.21218 18.1213C1.77478 18.6839 2.53785 19 3.3335 19H17.3335C18.1291 19 18.8922 18.6839 19.4548 18.1213C20.0174 17.5587 20.3335 16.7957 20.3335 16V7C20.3335 6.73479 20.2281 6.48043 20.0406 6.2929C19.8531 6.10536 19.5987 6 19.3335 6Z" fill="black"/>
</svg>
