<svg width="21" height="20" viewBox="0 0 21 20" fill="none" xmlns="http://www.w3.org/2000/svg">
<path d="M18.8263 2.61C17.7646 1.548 16.357 0.902323 14.8595 0.790378C13.362 0.678433 11.8741 1.10766 10.6663 2C9.39395 1.05363 7.81028 0.624508 6.23421 0.799034C4.65814 0.97356 3.20673 1.73877 2.17226 2.94058C1.1378 4.14239 0.597113 5.69152 0.659092 7.27601C0.721071 8.8605 1.38111 10.3627 2.50629 11.48L9.95629 18.93C10.0493 19.0237 10.1599 19.0981 10.2817 19.1489C10.4036 19.1997 10.5343 19.2258 10.6663 19.2258C10.7983 19.2258 10.929 19.1997 11.0509 19.1489C11.1727 19.0981 11.2833 19.0237 11.3763 18.93L18.8263 11.48C19.4089 10.8977 19.8712 10.2063 20.1865 9.44536C20.5019 8.68439 20.6642 7.86873 20.6642 7.045C20.6642 6.22127 20.5019 5.40561 20.1865 4.64463C19.8712 3.88365 19.4089 3.19227 18.8263 2.61ZM17.4163 10.07L10.6663 16.81L3.91629 10.07C3.32147 9.4727 2.91627 8.71304 2.75152 7.88634C2.58678 7.05963 2.66982 6.20268 2.99024 5.42299C3.31066 4.6433 3.85419 3.97559 4.55264 3.50362C5.25109 3.03165 6.07335 2.77644 6.91629 2.77C8.0424 2.77276 9.12139 3.22233 9.91629 4.02C10.0093 4.11373 10.1199 4.18812 10.2417 4.23889C10.3636 4.28966 10.4943 4.3158 10.6263 4.3158C10.7583 4.3158 10.889 4.28966 11.0109 4.23889C11.1327 4.18812 11.2433 4.11373 11.3363 4.02C12.1546 3.31088 13.2118 2.93914 14.2938 2.98002C15.3759 3.0209 16.402 3.47134 17.1645 4.24019C17.927 5.00903 18.3689 6.03884 18.4008 7.12119C18.4327 8.20354 18.0522 9.25759 17.3363 10.07H17.4163Z" fill="black"/>
</svg>
