<svg width="126" height="41" viewBox="0 0 126 41" fill="none" xmlns="http://www.w3.org/2000/svg">
<path d="M19.5322 38.7694V39.4147H78.3007V38.7694H19.5322Z" fill="white"/>
<path d="M103.961 20.2439H99.5162C99.5162 20.2439 99.5162 26.5219 99.5162 26.7674C99.3145 26.7745 98.5941 26.7955 98.5941 26.7955C95.9719 26.7955 94.0269 26.1572 92.8455 24.9156C91.6424 23.653 91.0373 22.2431 91.0373 20.7209C91.0373 19.5845 91.3543 18.5254 91.9738 17.5644C92.6005 16.6034 93.4434 15.8668 94.4735 15.3688C95.5181 14.8708 96.6923 14.6042 97.9529 14.6042C99.6819 14.6042 101.447 14.9059 103.204 15.5021L103.939 15.7546V12.7454L103.507 12.6542C101.512 12.2263 99.6818 12.0018 98.0898 12.0018C95.9647 12.0018 93.9765 12.3455 92.1827 13.0189C90.3602 13.7064 88.9266 14.7445 87.9109 16.0913C86.8951 17.4521 86.3765 19.0023 86.3765 20.6999C86.3765 22.4254 86.9023 23.9897 87.9469 25.3645C88.9842 26.7183 90.4178 27.7495 92.2331 28.4159C94.0053 29.0682 96.0439 29.4049 98.3059 29.4049C99.8836 29.4049 101.634 29.2436 103.521 28.9209C103.493 28.9209 103.867 28.8648 103.867 28.8648L103.975 28.8437V28.7315V20.2439H103.961Z" fill="white"/>
<path d="M0.5 29.0893H5.02397C5.02397 29.0893 5.02397 22.2641 5.02397 22.0116C5.28331 22.0116 14.144 22.0116 14.144 22.0116V19.4092C14.144 19.4092 5.28331 19.4092 5.02397 19.4092C5.02397 19.1707 5.02397 15.46 5.02397 15.2215C5.28331 15.2215 15.2101 15.2215 15.2101 15.2215V12.6191H0.5L0.5 29.0893Z" fill="white"/>
<path d="M35.4526 12.6261H30.9214V29.0892H42.6708V26.4868C42.6708 26.4868 35.7119 26.4868 35.4526 26.4868C35.4526 26.2343 35.4526 12.6261 35.4526 12.6261Z" fill="white"/>
<path d="M53.239 12.1421C50.1198 12.1421 47.6849 12.9347 46.0064 14.499C44.328 16.0702 43.4707 18.2027 43.4707 20.8401C43.4707 23.4776 44.3208 25.617 46.0064 27.1883C47.6849 28.7525 50.1198 29.5452 53.239 29.5452C56.3655 29.5452 58.8075 28.7525 60.4788 27.1883C62.1573 25.617 63.0074 23.4846 63.0074 20.8401C63.0074 18.2097 62.1573 16.0702 60.4788 14.499C58.8075 12.9347 56.3655 12.1421 53.239 12.1421ZM56.985 25.4557C55.9909 26.4377 54.7374 26.9428 53.2462 26.9428C51.7478 26.9428 50.4944 26.4447 49.5003 25.4557C48.5061 24.4666 48.0019 22.9164 48.0019 20.8471C48.0019 18.7778 48.5061 17.2276 49.5003 16.2386C50.4944 15.2565 51.7478 14.7585 53.2462 14.7585C54.7374 14.7585 55.9981 15.2565 56.985 16.2386C57.9791 17.2276 58.4834 18.7778 58.4834 20.8471C58.4834 22.9164 57.9719 24.4666 56.985 25.4557Z" fill="white"/>
<path d="M24.1646 12.6332H19.6406V29.0893H24.1646V12.6332Z" fill="white"/>
<path d="M117.511 12.6332H114.154L106.28 29.0823H110.401C110.401 29.0823 112.339 24.9227 112.403 24.7824C112.548 24.7824 119.125 24.7824 119.269 24.7824C119.334 24.9157 121.279 29.0823 121.279 29.0823H125.5L117.511 12.6332ZM113.145 22.4185C113.455 21.7451 115.148 17.9923 115.429 17.3259C115.436 17.3049 115.595 16.8209 115.703 16.4772C115.811 16.7998 115.984 17.3259 115.984 17.3259C115.984 17.3259 118.217 22.4325 118.21 22.4185C118.217 22.4395 113.167 22.3834 113.145 22.4185Z" fill="white"/>
<path d="M77.84 21.5416C78.8701 21.1628 79.2663 20.8051 79.7994 20.4474C80.5486 19.9353 81.1465 19.3461 81.5787 18.6867C82.0326 17.9993 82.2631 17.2978 82.2631 16.6034C82.2631 15.8178 81.9029 15.0812 81.1969 14.4289C80.5342 13.8116 79.6049 13.3487 78.4307 13.047C77.2565 12.7524 75.6644 12.6191 73.3664 12.6191H67.0415V29.0823H71.5727C71.5727 29.0823 71.5727 15.4741 71.5727 15.2215C71.8032 15.2215 73.3592 15.2215 73.3592 15.2215C77.984 15.2215 77.7391 16.6946 77.7391 17.0734C77.7391 19.0164 74.5767 20.2089 73.3376 20.6017V22.685L80.1092 29.0542L84.453 29.0823H85.8218C85.8146 29.0893 78.1281 21.8152 77.84 21.5416Z" fill="white"/>
<path d="M87.8314 37.2122L86.4194 40.9088H87.4208C87.4208 40.9088 87.6801 40.1793 87.7017 40.1302C87.7521 40.1302 88.8255 40.1302 88.8759 40.1302C88.8975 40.1723 89.1425 40.9088 89.1425 40.9088H90.1726L88.7751 37.2122H87.8314ZM87.7521 39.4358C87.7737 39.3726 88.1844 38.2994 88.2852 38.0329C88.35 38.2012 88.7607 39.3446 88.7895 39.4358C88.6886 39.4358 87.8602 39.4358 87.7521 39.4358Z" fill="white"/>
<path d="M98.5867 37.2122H97.6069V40.9088H98.5867V37.2122Z" fill="white"/>
<path d="M95.1213 40.6073C95.1141 40.6002 95.0781 40.4038 95.0781 40.4038C95.0781 40.3968 95.0637 40.1794 95.0637 40.1794L95.0565 39.983C95.0565 39.976 95.0133 39.7094 95.0133 39.7094C95.0133 39.7164 94.9196 39.4428 94.9196 39.4428C94.9124 39.4358 94.7395 39.2184 94.7395 39.2184C94.7395 39.2184 94.6387 39.1623 94.6243 39.1552C94.7683 39.0711 94.8836 38.9799 94.9556 38.8677C95.0493 38.7063 95.0997 38.5099 95.0997 38.2854C95.0997 38.1381 95.0709 37.9979 95.0205 37.8716C94.9628 37.7453 94.8908 37.6261 94.79 37.5349C94.6891 37.4367 94.5666 37.3595 94.4298 37.3034C94.2929 37.2473 94.1344 37.2192 93.9615 37.2192H91.9517V40.9159H92.9386C92.9386 40.9159 92.9386 39.6182 92.9386 39.5481C93.0034 39.5481 93.6085 39.5481 93.6085 39.5481C93.7742 39.5481 93.8895 39.5761 93.9543 39.6463C94.0264 39.7164 94.0696 39.8286 94.0912 39.99L94.1344 40.4249C94.1344 40.4179 94.2209 40.8458 94.2209 40.8458L94.2497 40.9089H95.2582L95.1862 40.7616C95.1934 40.7616 95.1213 40.6143 95.1213 40.6073ZM94.0696 38.7344C93.9903 38.7975 93.8679 38.8326 93.7022 38.8326C93.7022 38.8326 92.953 38.8326 92.8738 38.8326C92.8738 38.7624 92.8738 38.0399 92.8738 37.9698C92.9458 37.9698 93.7022 37.9698 93.7022 37.9698C93.8679 37.9698 93.9903 38.0049 94.0696 38.068C94.1416 38.1311 94.1776 38.2434 94.1776 38.3907C94.1776 38.559 94.1416 38.6712 94.0696 38.7344Z" fill="white"/>
<path d="M103.708 39.2394C103.615 39.0991 103.506 38.9868 103.377 38.9097L102.995 38.7343L102.714 38.6642L102.721 38.6712C102.678 38.6502 102.556 38.6221 102.181 38.5239L101.871 38.4257L101.763 38.3485C101.763 38.3415 101.742 38.2293 101.742 38.2293C101.742 38.2363 101.77 38.103 101.77 38.103L101.871 38.0048C101.878 38.0048 102.008 37.9557 102.008 37.9557C102.001 37.9557 102.174 37.9347 102.174 37.9347L102.419 37.9557L102.606 38.0259C102.599 38.0188 102.714 38.1521 102.714 38.1521L102.772 38.3696V38.4608H103.723V38.3626C103.723 38.1451 103.679 37.9557 103.593 37.8014C103.514 37.6471 103.391 37.5138 103.247 37.4156C103.103 37.3244 102.945 37.2472 102.757 37.1981L102.203 37.135L101.698 37.2052C101.525 37.2472 101.374 37.3244 101.237 37.4156C101.1 37.5138 100.992 37.6401 100.906 37.7803C100.819 37.9277 100.776 38.103 100.776 38.2924C100.776 38.4678 100.812 38.6221 100.884 38.7484C100.949 38.8746 101.043 38.9798 101.151 39.064L101.511 39.2674L101.907 39.3937L101.9 39.3867C101.936 39.4007 102.03 39.4288 102.289 39.4919L102.613 39.5971L102.822 39.7234L102.88 39.8847L102.829 40.039L102.692 40.1443L102.491 40.2004L102.289 40.2144L102.015 40.1793C102.023 40.1793 101.806 40.0811 101.806 40.0811L101.662 39.9128L101.612 39.6602V39.562H100.654V39.6602C100.654 39.8917 100.697 40.0952 100.783 40.2635C100.87 40.4318 100.992 40.5721 101.144 40.6844C101.295 40.7966 101.468 40.8738 101.662 40.9229L102.253 41C102.498 41 102.728 40.972 102.916 40.9159C103.11 40.8597 103.283 40.7756 103.413 40.6633C103.55 40.5511 103.651 40.4248 103.723 40.2705C103.787 40.1162 103.823 39.9549 103.823 39.7795C103.852 39.555 103.802 39.3726 103.708 39.2394Z" fill="white"/>
<path d="M83.8692 37.2122H82.2051V40.9088H83.0335C83.0335 40.9088 83.0335 39.6392 83.0335 39.569C83.1056 39.569 83.8692 39.569 83.8692 39.569C84.2942 39.569 84.6256 39.4638 84.8561 39.2394C85.1226 38.9798 85.1802 38.6361 85.1802 38.3906C85.173 38.0469 85.0506 37.2122 83.8692 37.2122ZM83.8331 38.8676C83.8331 38.8676 83.0983 38.8676 83.0335 38.8676C83.0335 38.8045 83.0335 37.9838 83.0335 37.9206C83.0983 37.9206 83.8403 37.9206 83.8403 37.9206C84.1861 37.9206 84.3374 38.0609 84.3374 38.3976C84.3446 38.7413 84.0853 38.8676 83.8331 38.8676Z" fill="white"/>
<path d="M20.865 0.119263L19.6548 0.119263V5.02944H23.5232V4.04039C23.5232 4.04039 21.1316 4.04039 20.865 4.04039C20.865 3.77384 20.865 0.119263 20.865 0.119263Z" fill="white"/>
<path d="M27.9751 0.119263L25.8428 5.02944H27.1106C27.1106 5.02944 27.5429 3.95622 27.6005 3.8019C27.7734 3.8019 29.315 3.8019 29.4879 3.8019C29.5527 3.95622 29.9777 5.02944 29.9777 5.02944H31.2816L29.1421 0.119263L27.9751 0.119263ZM27.8598 2.90404C27.9679 2.62346 28.3785 1.76768 28.5442 1.34681C28.7099 1.7747 29.1205 2.63047 29.2285 2.90404C28.9404 2.90404 28.1552 2.90404 27.8598 2.90404Z" fill="white"/>
<path d="M59.398 0.119263L57.2656 5.02944H58.5335C58.5335 5.02944 58.9657 3.95622 59.0234 3.8019C59.1963 3.8019 60.7379 3.8019 60.9108 3.8019C60.9756 3.95622 61.4006 5.02944 61.4006 5.02944H62.7045L60.565 0.119263L59.398 0.119263ZM59.2827 2.90404C59.398 2.62346 59.8014 1.76768 59.9671 1.34681C60.14 1.7747 60.5362 2.63047 60.6514 2.90404C60.3633 2.90404 59.5708 2.90404 59.2827 2.90404Z" fill="white"/>
<path d="M37.9091 2.37789C38.2621 2.15342 38.4638 1.82374 38.4638 1.40988C38.4638 0.589181 37.8443 0.126221 36.7637 0.126221L34.0767 0.126221V5.0364H36.6268C37.9235 5.0364 38.7015 4.5033 38.7015 3.60544C38.6943 3.00218 38.4061 2.58131 37.9091 2.37789ZM35.2869 1.06617C35.5246 1.06617 36.634 1.06617 36.634 1.06617C37.1527 1.06617 37.2535 1.25556 37.2535 1.55719C37.2535 2.02015 36.7853 2.05522 36.634 2.05522C36.634 2.05522 35.5318 2.05522 35.2869 2.05522C35.2869 1.85881 35.2869 1.26258 35.2869 1.06617ZM36.7565 4.08242C36.7565 4.08242 35.5318 4.08242 35.2869 4.08242C35.2869 3.879 35.2869 3.13546 35.2869 2.92502C35.5318 2.92502 36.7565 2.92502 36.7565 2.92502C37.0879 2.92502 37.4841 3.02323 37.4841 3.4932C37.4841 3.97721 37.0879 4.08242 36.7565 4.08242Z" fill="white"/>
<path d="M44.2628 0.00695801C42.6996 0.00695801 41.6118 1.05914 41.6118 2.57428C41.6118 4.08241 42.6996 5.1416 44.2628 5.1416C45.826 5.1416 46.9138 4.08241 46.9138 2.57428C46.9138 1.05914 45.826 0.00695801 44.2628 0.00695801ZM44.2628 4.19464C43.2039 4.19464 42.8221 3.35991 42.8221 2.57428C42.8221 1.79567 43.2039 0.953921 44.2628 0.953921C45.329 0.953921 45.7036 1.78865 45.7036 2.57428C45.7108 3.3529 45.329 4.19464 44.2628 4.19464Z" fill="white"/>
<path d="M74.2017 0.00695801C72.6385 0.00695801 71.5508 1.05914 71.5508 2.57428C71.5508 4.08241 72.6385 5.1416 74.2017 5.1416C75.7649 5.1416 76.8527 4.08241 76.8527 2.57428C76.8527 1.06615 75.7577 0.00695801 74.2017 0.00695801ZM74.2017 4.19464C73.1428 4.19464 72.761 3.35991 72.761 2.57428C72.761 1.79567 73.1428 0.953921 74.2017 0.953921C75.2679 0.953921 75.6425 1.78865 75.6425 2.57428C75.6425 3.3529 75.2679 4.19464 74.2017 4.19464Z" fill="white"/>
<path d="M54.5573 3.66862C54.5573 3.07239 54.2691 2.7918 54.017 2.65853C54.4204 2.42003 54.6509 2.02722 54.6509 1.51516C54.6509 0.62431 53.9666 0.119263 52.7707 0.119263L50.127 0.119263V5.02944H51.3372C51.3372 5.02944 51.3372 3.37401 51.3372 3.1285C51.5749 3.1285 52.533 3.1285 52.533 3.1285C53.2318 3.1285 53.4263 3.35998 53.4263 4.20874C53.4263 4.44022 53.4263 4.73483 53.592 4.96631L53.6352 5.02944H55.0543L54.795 4.78393C54.6437 4.64364 54.5573 4.21576 54.5573 3.66862ZM52.6843 2.22363C52.6843 2.22363 51.5749 2.22363 51.33 2.22363C51.33 2.01319 51.33 1.27666 51.33 1.06623C51.5677 1.06623 52.6699 1.06623 52.6699 1.06623C53.2102 1.06623 53.4335 1.22756 53.4335 1.62739C53.4335 2.02722 53.1886 2.22363 52.6843 2.22363Z" fill="white"/>
<path d="M89.1928 3.66862C89.1928 3.07239 88.9047 2.7918 88.6453 2.65853C89.0488 2.42003 89.2721 2.02722 89.2721 1.51516C89.2721 0.62431 88.5877 0.119263 87.3991 0.119263L84.7554 0.119263V5.02944H85.9656C85.9656 5.02944 85.9656 3.37401 85.9656 3.1285C86.1961 3.1285 87.1614 3.1285 87.1614 3.1285C87.8602 3.1285 88.0547 3.35998 88.0547 4.20874C88.0547 4.44022 88.0546 4.73483 88.2203 4.96631L88.2636 5.02944H89.6827L89.4233 4.78393C89.2793 4.64364 89.1928 4.21576 89.1928 3.66862ZM87.3271 2.22363C87.3271 2.22363 86.2177 2.22363 85.9728 2.22363C85.9728 2.01319 85.9728 1.27666 85.9728 1.06623C86.2105 1.06623 87.3127 1.06623 87.3127 1.06623C87.8601 1.06623 88.0691 1.22055 88.0691 1.62739C88.0691 2.02722 87.8313 2.22363 87.3271 2.22363Z" fill="white"/>
<path d="M64.3184 1.1013C64.3184 1.1013 65.7303 1.1013 65.9752 1.1013C65.9752 1.36785 65.9752 5.02944 65.9752 5.02944H67.1855C67.1855 5.02944 67.1855 1.36785 67.1855 1.1013C67.4304 1.1013 68.8495 1.1013 68.8495 1.1013V0.119263L64.3184 0.119263V1.1013Z" fill="white"/>
<path d="M81.2615 0.119263L80.0513 0.119263V5.02944H81.2615V0.119263Z" fill="white"/>
<path d="M93.7819 2.97418C94.0484 2.97418 96.4185 2.97418 96.4185 2.97418V2.02722C96.4185 2.02722 94.0484 2.02722 93.7819 2.02722C93.7819 1.83081 93.7819 1.29771 93.7819 1.1013C94.0484 1.1013 96.6274 1.1013 96.6274 1.1013V0.119263L92.5645 0.119263V5.02944H96.6778V4.04039C96.6778 4.04039 94.0484 4.04039 93.7747 4.04039C93.7819 3.83697 93.7819 3.1776 93.7819 2.97418Z" fill="white"/>
<path d="M102.967 2.22361L101.67 1.91497L101.454 1.86587C100.993 1.75364 100.942 1.55021 100.942 1.40992C100.942 0.975021 101.62 0.953978 101.756 0.953978C102.686 0.953978 102.722 1.46604 102.736 1.63439L102.743 1.76766L103.946 1.76766V1.62036C103.946 0.652353 103.082 0 101.792 0C100.805 0 99.7321 0.469974 99.7321 1.50813C99.7321 1.97109 99.9554 2.56732 101 2.81985L101.699 2.98118L102.549 3.19863C102.779 3.27579 102.88 3.40907 102.88 3.63353C102.88 3.97725 102.52 4.18768 101.929 4.18768C101.49 4.18768 100.748 4.07545 100.748 3.33892V3.19162H99.5376V3.33892C99.5592 4.46125 100.431 5.13464 101.864 5.13464C102.895 5.13464 104.09 4.71377 104.09 3.54234C104.09 3.0373 103.745 2.43405 102.967 2.22361Z" fill="white"/>
</svg>
