<svg width="21" height="21" viewBox="0 0 21 21" fill="none" xmlns="http://www.w3.org/2000/svg">
<path d="M19.6101 18.19C20.2368 17.3499 20.6669 16.3799 20.8686 15.3514C21.0703 14.3229 21.0385 13.2623 20.7755 12.2478C20.5125 11.2332 20.025 10.2907 19.3491 9.48974C18.6732 8.68877 17.826 8.0498 16.8701 7.61999C16.6619 6.42209 16.1834 5.28741 15.4709 4.30216C14.7585 3.31691 13.8308 2.50702 12.7585 1.93402C11.6861 1.36102 10.4972 1.04 9.28217 0.99533C8.06713 0.950664 6.8579 1.18354 5.74635 1.67625C4.6348 2.16897 3.65018 2.90857 2.86731 3.83884C2.08443 4.76912 1.5239 5.86561 1.22831 7.04499C0.93271 8.22437 0.909825 9.45561 1.16139 10.6452C1.41295 11.8347 1.93235 12.9513 2.68011 13.91L1.29011 15.29C1.15136 15.4306 1.05736 15.6092 1.01998 15.8032C0.982611 15.9972 1.00353 16.1979 1.08011 16.38C1.15513 16.5626 1.28253 16.7189 1.44625 16.8293C1.60997 16.9396 1.80269 16.999 2.00011 17H7.69011C8.25676 18.1946 9.15015 19.2043 10.2669 19.9122C11.3836 20.6201 12.6779 20.9972 14.0001 21H20.0001C20.1975 20.999 20.3903 20.9396 20.554 20.8293C20.7177 20.7189 20.8451 20.5626 20.9201 20.38C20.9967 20.1979 21.0176 19.9972 20.9802 19.8032C20.9429 19.6092 20.8489 19.4306 20.7101 19.29L19.6101 18.19ZM7.00011 14C7.00149 14.3349 7.02823 14.6692 7.08011 15H4.41011L4.76011 14.66C4.85384 14.567 4.92824 14.4564 4.979 14.3346C5.02977 14.2127 5.05591 14.082 5.05591 13.95C5.05591 13.818 5.02977 13.6873 4.979 13.5654C4.92824 13.4436 4.85384 13.333 4.76011 13.24C4.19967 12.6857 3.75536 12.0252 3.45317 11.2972C3.15097 10.5692 2.99695 9.78823 3.00011 8.99999C3.00011 7.40869 3.63225 5.88257 4.75747 4.75735C5.88269 3.63213 7.40881 2.99999 9.00011 2.99999C10.2418 2.99253 11.4546 3.37438 12.468 4.09186C13.4815 4.80934 14.2446 5.82637 14.6501 6.99999C14.4301 6.99999 14.2201 6.99999 14.0001 6.99999C12.1436 6.99999 10.3631 7.73749 9.05037 9.05025C7.73761 10.363 7.00011 12.1435 7.00011 14ZM17.5401 19L17.5901 19.05H14.0001C12.8435 19.0479 11.7233 18.6449 10.8304 17.9096C9.93758 17.1743 9.32728 16.1521 9.10351 15.0173C8.87973 13.8825 9.05632 12.7052 9.60319 11.686C10.1501 10.6668 11.0334 9.8687 12.1027 9.42769C13.172 8.98669 14.3611 8.93005 15.4674 9.26742C16.5738 9.6048 17.529 10.3153 18.1703 11.2779C18.8115 12.2406 19.0992 13.3957 18.9843 14.5467C18.8694 15.6976 18.359 16.7731 17.5401 17.59C17.3517 17.7746 17.2439 18.0262 17.2401 18.29C17.2407 18.4223 17.2675 18.5532 17.319 18.6751C17.3705 18.7969 17.4456 18.9074 17.5401 19Z" fill="black"/>
</svg>
