<svg width="85" height="69" viewBox="0 0 85 69" fill="none" xmlns="http://www.w3.org/2000/svg">
<path d="M8.99307 68.9689L8.2178 66.61H3.5042L2.69792 68.9689H0L4.80664 55.7152H6.82233L11.66 68.9689H8.99307ZM5.89201 59.6261L4.21744 64.4372H7.50456L5.89201 59.6261Z" fill="black"/>
<path d="M21.6145 68.9689L16.3737 60.8367V68.9689H13.7998V55.7152H16.0946L21.3354 63.8475V55.7152H23.9093V68.9689H21.6145Z" fill="black"/>
<path d="M32.53 58.0431V68.9999H29.9561V58.0431H26.4829V55.7462H36.0032V58.0431H32.53Z" fill="black"/>
<path d="M38.5771 68.9689V55.7152H41.151V68.9689H38.5771Z" fill="black"/>
<path d="M44.252 63.475V61.2091H49.9889V63.475H44.252Z" fill="black"/>
<path d="M53.0903 68.9689V55.7152H61.8043V58.0121H55.6642V61.116H60.905V63.4129H55.6642V66.641H61.8043V68.9379H53.0903V68.9689Z" fill="black"/>
<path d="M69.8979 58.0431V68.9999H67.293V58.0431H63.8198V55.7462H73.3401V58.0431H69.8979Z" fill="black"/>
<path d="M82.3329 68.9689L81.5576 66.61H76.844L76.0378 68.9689H73.3398L78.1465 55.7152H80.1622L84.9998 68.9689H82.3329ZM78.5496 54.4426L76.4409 51.2766H78.9838L80.1622 54.4426H78.5496ZM79.2319 59.6261L77.5573 64.4372H80.8444L79.2319 59.6261Z" fill="black"/>
<path d="M46.3919 0C45.2135 0 44.0661 0.186235 43.0117 0.558705V7.10796C43.818 6.20783 44.9964 5.64912 46.3609 5.64912C48.8417 5.64912 50.8574 7.51147 50.8574 9.93253C50.8574 12.3536 48.8727 14.2159 46.4229 14.2159C45.0584 14.2159 43.849 13.6262 43.0427 12.726V19.2443C44.0971 19.5857 45.2445 19.803 46.4229 19.803C52.1598 19.803 56.7804 15.3954 56.7804 9.93253C56.7804 4.46964 52.1288 0 46.3919 0Z" fill="black"/>
<path d="M74.7667 49.6005V9.99455L64.2231 18.7165V9.0013L74.7667 0.279297H84.225V49.6005H74.7667Z" fill="black"/>
<path d="M31.5689 49.6005L11.0709 19.3373V49.6005H0.961426V0.279297H9.98551L30.4835 30.4804V0.279297H40.5929V49.6005H31.5689Z" fill="black"/>
<path d="M42.9805 39.8232V32.8394H44.3449V39.8232H42.9805Z" fill="black"/>
<path d="M49.8339 39.8232L47.0739 35.5398V39.8232H45.7095V32.8394H46.9189L49.6788 37.1228V32.8394H51.0433V39.8232H49.8339Z" fill="black"/>
<path d="M42.9805 49.6005V42.6167H44.3449V49.6005H42.9805Z" fill="black"/>
<path d="M48.3762 43.8583V49.6316H47.0118V43.8583H45.1821V42.6478H50.1748V43.8583H48.3762Z" fill="black"/>
<path d="M54.4546 49.6005L54.0514 48.3589H51.5706L51.1364 49.6005H49.71L52.2528 42.6167H53.3072L55.8501 49.6005H54.4546ZM52.811 44.6963L51.9427 47.2415H53.6793L52.811 44.6963Z" fill="black"/>
<path d="M56.4702 49.6005V42.6167H57.8347V48.39H60.9978V49.6005H56.4702Z" fill="black"/>
<path d="M61.8657 49.6005V42.6167H63.2302V49.6005H61.8657Z" fill="black"/>
<path d="M68.564 49.6005L68.1608 48.3589H65.68L65.2458 49.6005H63.8193L66.3622 42.6167H67.4166L69.9594 49.6005H68.564ZM66.9204 44.6963L66.0521 47.2415H67.7887L66.9204 44.6963Z" fill="black"/>
<path d="M71.696 44.1997L71.1068 43.8272L71.1378 44.5101H70.8588L70.8898 43.8272L70.3006 44.1997L70.1455 43.9514L70.7657 43.61L70.1455 43.2685L70.3006 43.0202L70.8898 43.3927L70.8588 42.7098H71.1378L71.1068 43.3927L71.696 43.0202L71.8511 43.2685L71.2309 43.61L71.8511 43.9514L71.696 44.1997Z" fill="black"/>
</svg>
