<svg width="13" height="12" viewBox="0 0 13 12" fill="none" xmlns="http://www.w3.org/2000/svg">
<path d="M8.24984 7.16663C8.13446 7.16663 8.02168 7.20084 7.92575 7.26494C7.82983 7.32903 7.75506 7.42014 7.71091 7.52673C7.66676 7.63332 7.6552 7.75061 7.67771 7.86376C7.70022 7.97692 7.75578 8.08086 7.83736 8.16244C7.91894 8.24402 8.02288 8.29958 8.13603 8.32208C8.24919 8.34459 8.36648 8.33304 8.47307 8.28889C8.57966 8.24474 8.67076 8.16997 8.73486 8.07404C8.79896 7.97811 8.83317 7.86533 8.83317 7.74996C8.83317 7.59525 8.77171 7.44688 8.66232 7.33748C8.55292 7.22808 8.40455 7.16663 8.24984 7.16663ZM4.74984 3.66663C4.63446 3.66663 4.52168 3.70084 4.42575 3.76494C4.32983 3.82903 4.25506 3.92014 4.21091 4.02673C4.16676 4.13332 4.1552 4.25061 4.17771 4.36376C4.20022 4.47692 4.25578 4.58086 4.33736 4.66244C4.41894 4.74402 4.52288 4.79958 4.63603 4.82208C4.74919 4.84459 4.86648 4.83304 4.97307 4.78889C5.07966 4.74474 5.17076 4.66997 5.23486 4.57404C5.29896 4.47811 5.33317 4.36533 5.33317 4.24996C5.33317 4.09525 5.27171 3.94688 5.16232 3.83748C5.05292 3.72808 4.90455 3.66663 4.74984 3.66663ZM4.74984 7.16663C4.63446 7.16663 4.52168 7.20084 4.42575 7.26494C4.32983 7.32903 4.25506 7.42014 4.21091 7.52673C4.16676 7.63332 4.1552 7.75061 4.17771 7.86376C4.20022 7.97692 4.25578 8.08086 4.33736 8.16244C4.41894 8.24402 4.52288 8.29958 4.63603 8.32208C4.74919 8.34459 4.86648 8.33304 4.97307 8.28889C5.07966 8.24474 5.17076 8.16997 5.23486 8.07404C5.29896 7.97811 5.33317 7.86533 5.33317 7.74996C5.33317 7.59525 5.27171 7.44688 5.16232 7.33748C5.05292 7.22808 4.90455 7.16663 4.74984 7.16663ZM8.24984 3.66663C8.13446 3.66663 8.02168 3.70084 7.92575 3.76494C7.82983 3.82903 7.75506 3.92014 7.71091 4.02673C7.66676 4.13332 7.6552 4.25061 7.67771 4.36376C7.70022 4.47692 7.75578 4.58086 7.83736 4.66244C7.91894 4.74402 8.02288 4.79958 8.13603 4.82208C8.24919 4.84459 8.36648 4.83304 8.47307 4.78889C8.57966 4.74474 8.67076 4.66997 8.73486 4.57404C8.79896 4.47811 8.83317 4.36533 8.83317 4.24996C8.83317 4.09525 8.77171 3.94688 8.66232 3.83748C8.55292 3.72808 8.40455 3.66663 8.24984 3.66663ZM9.4165 0.166626H3.58317C2.80962 0.166626 2.06776 0.473917 1.52078 1.0209C0.973795 1.56788 0.666504 2.30974 0.666504 3.08329V8.91663C0.666504 9.69017 0.973795 10.432 1.52078 10.979C2.06776 11.526 2.80962 11.8333 3.58317 11.8333H9.4165C10.1901 11.8333 10.9319 11.526 11.4789 10.979C12.0259 10.432 12.3332 9.69017 12.3332 8.91663V3.08329C12.3332 2.30974 12.0259 1.56788 11.4789 1.0209C10.9319 0.473917 10.1901 0.166626 9.4165 0.166626ZM11.1665 8.91663C11.1665 9.38075 10.9821 9.82587 10.6539 10.1541C10.3258 10.4823 9.88063 10.6666 9.4165 10.6666H3.58317C3.11904 10.6666 2.67392 10.4823 2.34573 10.1541C2.01755 9.82587 1.83317 9.38075 1.83317 8.91663V3.08329C1.83317 2.61916 2.01755 2.17404 2.34573 1.84586C2.67392 1.51767 3.11904 1.33329 3.58317 1.33329H9.4165C9.88063 1.33329 10.3258 1.51767 10.6539 1.84586C10.9821 2.17404 11.1665 2.61916 11.1665 3.08329V8.91663Z" fill="black"/>
</svg>
