<svg width="240" height="190" viewBox="0 0 240 190" fill="none" xmlns="http://www.w3.org/2000/svg">
<path d="M86.6301 173.598C87.659 173.598 88.4931 172.774 88.4931 171.758C88.4931 170.741 87.659 169.917 86.6301 169.917C85.6012 169.917 84.7671 170.741 84.7671 171.758C84.7671 172.774 85.6012 173.598 86.6301 173.598Z" fill="white"/>
<path d="M107.397 174.194C108.759 174.194 109.863 173.103 109.863 171.758C109.863 170.412 108.759 169.322 107.397 169.322C106.035 169.322 104.932 170.412 104.932 171.758C104.932 173.103 106.035 174.194 107.397 174.194Z" fill="white"/>
<path d="M117.753 190C118.782 190 119.616 189.176 119.616 188.16C119.616 187.143 118.782 186.319 117.753 186.319C116.724 186.319 115.89 187.143 115.89 188.16C115.89 189.176 116.724 190 117.753 190Z" fill="white"/>
<path d="M128.164 174.194C129.526 174.194 130.63 173.103 130.63 171.758C130.63 170.412 129.526 169.322 128.164 169.322C126.803 169.322 125.699 170.412 125.699 171.758C125.699 173.103 126.803 174.194 128.164 174.194Z" fill="white"/>
<path d="M148.931 173.598C149.96 173.598 150.795 172.774 150.795 171.758C150.795 170.741 149.96 169.917 148.931 169.917C147.903 169.917 147.068 170.741 147.068 171.758C147.068 172.774 147.903 173.598 148.931 173.598Z" fill="white"/>
<path d="M55.452 154.761C56.4809 154.761 57.315 153.937 57.315 152.92C57.315 151.904 56.4809 151.08 55.452 151.08C54.4231 151.08 53.589 151.904 53.589 152.92C53.589 153.937 54.4231 154.761 55.452 154.761Z" fill="white"/>
<path d="M76.2192 155.356C77.581 155.356 78.6849 154.266 78.6849 152.92C78.6849 151.575 77.581 150.484 76.2192 150.484C74.8574 150.484 73.7534 151.575 73.7534 152.92C73.7534 154.266 74.8574 155.356 76.2192 155.356Z" fill="white"/>
<path d="M97.0411 156.601C99.0989 156.601 100.767 154.953 100.767 152.92C100.767 150.887 99.0989 149.239 97.0411 149.239C94.9833 149.239 93.3151 150.887 93.3151 152.92C93.3151 154.953 94.9833 156.601 97.0411 156.601Z" fill="white"/>
<path d="M117.753 156.601C119.811 156.601 121.479 154.953 121.479 152.92C121.479 150.887 119.811 149.239 117.753 149.239C115.696 149.239 114.027 150.887 114.027 152.92C114.027 154.953 115.696 156.601 117.753 156.601Z" fill="white"/>
<path d="M138.575 156.601C140.633 156.601 142.301 154.953 142.301 152.92C142.301 150.887 140.633 149.239 138.575 149.239C136.518 149.239 134.849 150.887 134.849 152.92C134.849 154.953 136.518 156.601 138.575 156.601Z" fill="white"/>
<path d="M159.342 155.356C160.704 155.356 161.808 154.266 161.808 152.92C161.808 151.575 160.704 150.484 159.342 150.484C157.981 150.484 156.877 151.575 156.877 152.92C156.877 154.266 157.981 155.356 159.342 155.356Z" fill="white"/>
<path d="M180.11 154.761C181.139 154.761 181.973 153.937 181.973 152.92C181.973 151.904 181.139 151.08 180.11 151.08C179.081 151.08 178.247 151.904 178.247 152.92C178.247 153.937 179.081 154.761 180.11 154.761Z" fill="white"/>
<path d="M44.8767 135.057C45.9056 135.057 46.7397 134.233 46.7397 133.217C46.7397 132.2 45.9056 131.376 44.8767 131.376C43.8478 131.376 43.0137 132.2 43.0137 133.217C43.0137 134.233 43.8478 135.057 44.8767 135.057Z" fill="white"/>
<path d="M65.6439 135.652C67.0057 135.652 68.1096 134.562 68.1096 133.217C68.1096 131.871 67.0057 130.781 65.6439 130.781C64.2821 130.781 63.1781 131.871 63.1781 133.217C63.1781 134.562 64.2821 135.652 65.6439 135.652Z" fill="white"/>
<path d="M86.4109 137.493C88.8016 137.493 90.7397 135.578 90.7397 133.217C90.7397 130.855 88.8016 128.94 86.4109 128.94C84.0202 128.94 82.0822 130.855 82.0822 133.217C82.0822 135.578 84.0202 137.493 86.4109 137.493Z" fill="white"/>
<path d="M148.712 137.493C151.103 137.493 153.041 135.578 153.041 133.217C153.041 130.855 151.103 128.94 148.712 128.94C146.322 128.94 144.384 130.855 144.384 133.217C144.384 135.578 146.322 137.493 148.712 137.493Z" fill="white"/>
<path d="M169.479 135.652C170.841 135.652 171.945 134.562 171.945 133.217C171.945 131.871 170.841 130.781 169.479 130.781C168.118 130.781 167.014 131.871 167.014 133.217C167.014 134.562 168.118 135.652 169.479 135.652Z" fill="white"/>
<path d="M190.247 135.057C191.275 135.057 192.11 134.233 192.11 133.217C192.11 132.2 191.275 131.376 190.247 131.376C189.218 131.376 188.384 132.2 188.384 133.217C188.384 134.233 189.218 135.057 190.247 135.057Z" fill="white"/>
<path d="M148.548 20.1367C149.577 20.1367 150.411 19.3127 150.411 18.2963C150.411 17.2798 149.577 16.4558 148.548 16.4558C147.519 16.4558 146.685 17.2798 146.685 18.2963C146.685 19.3127 147.519 20.1367 148.548 20.1367Z" fill="white"/>
<path d="M127.781 20.7322C129.143 20.7322 130.247 19.6416 130.247 18.2963C130.247 16.951 129.143 15.8604 127.781 15.8604C126.419 15.8604 125.315 16.951 125.315 18.2963C125.315 19.6416 126.419 20.7322 127.781 20.7322Z" fill="white"/>
<path d="M117.37 3.68091C118.399 3.68091 119.233 2.85691 119.233 1.84046C119.233 0.824 118.399 0 117.37 0C116.341 0 115.507 0.824 115.507 1.84046C115.507 2.85691 116.341 3.68091 117.37 3.68091Z" fill="white"/>
<path d="M106.959 20.7322C108.321 20.7322 109.425 19.6416 109.425 18.2963C109.425 16.951 108.321 15.8604 106.959 15.8604C105.597 15.8604 104.493 16.951 104.493 18.2963C104.493 19.6416 105.597 20.7322 106.959 20.7322Z" fill="white"/>
<path d="M86.2466 20.1367C87.2755 20.1367 88.1096 19.3127 88.1096 18.2963C88.1096 17.2798 87.2755 16.4558 86.2466 16.4558C85.2176 16.4558 84.3835 17.2798 84.3835 18.2963C84.3835 19.3127 85.2176 20.1367 86.2466 20.1367Z" fill="white"/>
<path d="M179.671 38.9744C180.7 38.9744 181.534 38.1504 181.534 37.1339C181.534 36.1175 180.7 35.2935 179.671 35.2935C178.642 35.2935 177.808 36.1175 177.808 37.1339C177.808 38.1504 178.642 38.9744 179.671 38.9744Z" fill="white"/>
<path d="M158.904 39.5698C160.266 39.5698 161.37 38.4792 161.37 37.1339C161.37 35.7886 160.266 34.698 158.904 34.698C157.542 34.698 156.438 35.7886 156.438 37.1339C156.438 38.4792 157.542 39.5698 158.904 39.5698Z" fill="white"/>
<path d="M141.844 37.7097C142.174 35.703 140.794 33.8123 138.763 33.4866C136.732 33.1609 134.818 34.5236 134.488 36.5303C134.159 38.537 135.538 40.4278 137.569 40.7534C139.601 41.0791 141.515 39.7164 141.844 37.7097Z" fill="white"/>
<path d="M117.37 40.8148C119.428 40.8148 121.096 39.1668 121.096 37.1339C121.096 35.101 119.428 33.453 117.37 33.453C115.312 33.453 113.644 35.101 113.644 37.1339C113.644 39.1668 115.312 40.8148 117.37 40.8148Z" fill="white"/>
<path d="M96.6027 40.8148C98.6606 40.8148 100.329 39.1668 100.329 37.1339C100.329 35.101 98.6606 33.453 96.6027 33.453C94.5449 33.453 92.8767 35.101 92.8767 37.1339C92.8767 39.1668 94.5449 40.8148 96.6027 40.8148Z" fill="white"/>
<path d="M75.8356 39.5698C77.1974 39.5698 78.3014 38.4792 78.3014 37.1339C78.3014 35.7886 77.1974 34.698 75.8356 34.698C74.4738 34.698 73.3699 35.7886 73.3699 37.1339C73.3699 38.4792 74.4738 39.5698 75.8356 39.5698Z" fill="white"/>
<path d="M55.0685 38.9744C56.0974 38.9744 56.9315 38.1504 56.9315 37.1339C56.9315 36.1175 56.0974 35.2935 55.0685 35.2935C54.0395 35.2935 53.2054 36.1175 53.2054 37.1339C53.2054 38.1504 54.0395 38.9744 55.0685 38.9744Z" fill="white"/>
<path d="M190.247 58.6781C191.275 58.6781 192.11 57.8541 192.11 56.8377C192.11 55.8212 191.275 54.9972 190.247 54.9972C189.218 54.9972 188.384 55.8212 188.384 56.8377C188.384 57.8541 189.218 58.6781 190.247 58.6781Z" fill="white"/>
<path d="M169.479 59.2735C170.841 59.2735 171.945 58.1829 171.945 56.8376C171.945 55.4923 170.841 54.4017 169.479 54.4017C168.118 54.4017 167.014 55.4923 167.014 56.8376C167.014 58.1829 168.118 59.2735 169.479 59.2735Z" fill="white"/>
<path d="M148.712 61.114C151.103 61.114 153.041 59.1994 153.041 56.8376C153.041 54.4759 151.103 52.5613 148.712 52.5613C146.322 52.5613 144.384 54.4759 144.384 56.8376C144.384 59.1994 146.322 61.114 148.712 61.114Z" fill="white"/>
<path d="M86.4109 61.114C88.8016 61.114 90.7397 59.1994 90.7397 56.8376C90.7397 54.4759 88.8016 52.5613 86.4109 52.5613C84.0202 52.5613 82.0822 54.4759 82.0822 56.8376C82.0822 59.1994 84.0202 61.114 86.4109 61.114Z" fill="white"/>
<path d="M65.6439 59.2735C67.0057 59.2735 68.1096 58.1829 68.1096 56.8376C68.1096 55.4923 67.0057 54.4017 65.6439 54.4017C64.2821 54.4017 63.1781 55.4923 63.1781 56.8376C63.1781 58.1829 64.2821 59.2735 65.6439 59.2735Z" fill="white"/>
<path d="M44.8767 58.6781C45.9056 58.6781 46.7397 57.8541 46.7397 56.8377C46.7397 55.8212 45.9056 54.9972 44.8767 54.9972C43.8478 54.9972 43.0137 55.8212 43.0137 56.8377C43.0137 57.8541 43.8478 58.6781 44.8767 58.6781Z" fill="white"/>
<path d="M28.1096 102.578C28.1096 106.043 26.8493 108.695 24.274 110.698C21.6987 112.647 18.4658 113.621 14.4658 113.621C11.5617 113.621 8.98633 113.242 6.84934 112.538C4.71236 111.781 2.73975 110.59 0.986328 108.858L5.64386 104.256C7.72605 106.313 10.685 107.342 14.4658 107.342C16.6028 107.342 18.2466 106.963 19.3425 106.151C20.4384 105.393 21.0411 104.256 21.0411 102.795C21.0411 101.55 20.6576 100.521 19.8904 99.7635C19.2329 99.1681 18.137 98.735 16.6028 98.5185L12.2192 97.8689C9.09592 97.4359 6.73975 96.4074 5.09592 94.8376C3.2877 93.1054 2.41099 90.7236 2.41099 87.6923C2.41099 84.3903 3.56167 81.7379 5.86304 79.6809C8.16441 77.678 11.2877 76.6495 15.2329 76.6495C20.2192 76.6495 24.1644 78.0569 27.1233 80.8718L22.5754 85.3105C20.8767 83.6324 18.3562 82.8205 15.0137 82.8205C13.2055 82.8205 11.7808 83.2535 10.8493 84.1196C9.86304 84.9857 9.42468 86.0683 9.42468 87.4216C9.42468 88.5042 9.75345 89.3703 10.4658 90.0199C11.2329 90.7236 12.3836 91.2108 13.8082 91.3732L18.1918 92.0228C21.3151 92.4558 23.6713 93.4302 25.2055 94.8917C27.1233 96.678 28.1096 99.2222 28.1096 102.578Z" fill="white"/>
<path d="M62.0823 113.296H53.6987L44.2193 96.7321L39.4521 102.362V113.296H32.274V76.9202H39.4521V92.7806L52.4384 76.9202H61.2056L48.9864 91.3732L62.0823 113.296Z" fill="white"/>
<path d="M71.2877 113.296H64.1096V76.9202H71.2877V113.296Z" fill="white"/>
<path d="M105.479 113.296H99.0685L84.4931 90.9401V113.296H77.2603V76.9202H83.6712L98.2466 99.2222V76.9202H105.425V113.296H105.479Z" fill="white"/>
<path d="M135.014 76.9203L124.164 98.2479V113.296H121.37V98.2479L110.521 76.9203H113.534L122.904 95.3248L132.055 76.9203H135.014Z" fill="white"/>
<path d="M157.041 113.296H134.63V110.427L154.027 79.4103H135.397V76.9744H157.041V79.4103L137.479 110.915H157.041V113.296Z" fill="white"/>
<path d="M184.219 113.296H161.863V76.9203H184.219V79.3562H164.657V93.7009H181.315V96.1368H164.657V110.806H184.219V113.296Z" fill="white"/>
<path d="M213.644 113.296H210.411L201.644 96.5157H191.507V113.296H188.712V76.9203H202.74C205.863 76.9203 208.384 77.7864 210.356 79.5186C212.329 81.2508 213.315 83.6325 213.315 86.718C213.315 89.4246 212.548 91.5898 211.014 93.322C209.479 95 207.452 96.0827 204.822 96.5157L213.644 113.296ZM208.219 92.2394C209.699 90.9944 210.411 89.1539 210.411 86.718C210.411 84.2821 209.699 82.4417 208.219 81.1966C206.74 79.9516 204.767 79.3562 202.301 79.3562H191.452V94.0798H202.301C204.767 94.0798 206.74 93.4844 208.219 92.2394Z" fill="white"/>
<path d="M232.603 92.9972H229.425L228.493 90.2365H222.904L221.973 92.9972H218.795L224.493 77.4615H226.904L232.603 92.9972ZM227.616 87.6923L225.699 82.0627L223.726 87.6923H227.616Z" fill="white"/>
<path d="M237.589 92.9972H234.521V77.4615H237.589V92.9972Z" fill="white"/>
</svg>
